<?xml version="1.0" encoding="utf-8"?>
<!-- Generator: Adobe Illustrator 25.2.3, SVG Export Plug-In . SVG Version: 6.00 Build 0)  -->
<svg version="1.1" id="Layer_1" xmlns="http://www.w3.org/2000/svg" xmlns:xlink="http://www.w3.org/1999/xlink" x="0px" y="0px"
	 viewBox="0 0 15.8 12.1" style="enable-background:new 0 0 15.8 12.1;" xml:space="preserve">
<style type="text/css">
	.st0{fill:#647179;}
</style>
<path id="Path_4226" class="st0" d="M7.9,12.1c-2.1,0-4.3,0-6.4,0C0.8,12.2,0.1,11.7,0,11c0-0.1,0-0.2,0-0.4c0-2.4,0-4.8,0-7.2
	C-0.1,2.7,0.4,2.1,1.1,2c0.1,0,0.3,0,0.4,0c0.7,0,1.4,0,2,0C3.8,2,4,1.9,4.2,1.7C4.6,1.3,5,0.9,5.3,0.5C5.6,0.2,6.1,0,6.5,0
	c1,0,1.9,0,2.9,0c0.4,0,0.8,0.2,1.1,0.5c0.4,0.4,0.8,0.9,1.2,1.2c0.2,0.1,0.4,0.2,0.6,0.2c0.7,0,1.5,0,2.2,0c0.7,0,1.2,0.5,1.3,1.2
	c0,0,0,0.1,0,0.1c0,2.5,0,5.1,0,7.6c0,0.7-0.5,1.3-1.2,1.3c-0.1,0-0.1,0-0.2,0C12.2,12.1,10.1,12.1,7.9,12.1z M11.4,6.7
	c0-1.9-1.5-3.5-3.5-3.5c0,0,0,0,0,0C6,3.2,4.4,4.7,4.4,6.7c0,0,0,0,0,0c0,1.9,1.6,3.5,3.5,3.5C9.8,10.2,11.4,8.6,11.4,6.7L11.4,6.7z
	 M14.3,3.9c0.3,0,0.5-0.3,0.5-0.5c0-0.3-0.2-0.5-0.5-0.5c0,0,0,0-0.1,0c-0.3,0-0.5,0.2-0.5,0.5c0,0,0,0,0,0C13.7,3.7,14,4,14.3,3.9
	C14.3,4,14.3,4,14.3,3.9L14.3,3.9z"/>
<path id="Path_4227" class="st0" d="M10.5,6.7c0,1.5-1.2,2.6-2.6,2.6c-1.5,0-2.6-1.2-2.6-2.6c0,0,0,0,0,0c0-1.4,1.2-2.6,2.6-2.6
	C9.4,4.1,10.5,5.2,10.5,6.7C10.5,6.7,10.5,6.7,10.5,6.7z"/>
</svg>
