<?xml version="1.0" encoding="utf-8"?>
<!-- Generator: Adobe Illustrator 25.2.3, SVG Export Plug-In . SVG Version: 6.00 Build 0)  -->
<svg version="1.1" id="Layer_1" xmlns="http://www.w3.org/2000/svg" xmlns:xlink="http://www.w3.org/1999/xlink" x="0px" y="0px"
	 viewBox="0 0 20.3 28.1" style="enable-background:new 0 0 20.3 28.1;" xml:space="preserve">
<style type="text/css">
	.st0{fill:#FFFFFF;}
</style>
<g>
	<path id="Path_4425" class="st0" d="M18.1,28.1L18.1,28.1c-7.5,0-14.3-4.6-17-11.6c-0.5-1.4-0.9-2.8-1.1-4.3
		C0.1,11.6,0,10.9,0,10.2C0,9.6,0.2,9,0.6,8.6C1,8.2,1.6,8,2.2,8c0.4,0,0.8,0,1.1,0l1,0c0.4,0,0.8,0,1.1,0c1.2-0.1,2.2,0.9,2.2,2
		c0,0,0,0.1,0,0.1c0,1.1,0.2,2.1,0.5,3.2c0.2,0.7,0.1,1.5-0.4,2.1C7.4,15.9,7,16.4,6.6,17l-0.1,0.2c1.1,1.9,2.6,3.5,4.6,4.5
		c0.4-0.3,0.8-0.6,1.3-1l0.7-0.5c0.5-0.4,1.2-0.5,1.8-0.4c0.2,0,0.4,0.1,0.6,0.1c0.4,0.1,0.7,0.2,1.1,0.2c0.5,0.1,1.1,0.1,1.6,0.1
		l0,0c1,0,1.8,0.6,2.1,1.6c0.1,0.2,0.1,0.4,0.1,0.6c0,1.1,0,2.2,0,3.4c0,0.6-0.2,1.2-0.6,1.6C19.2,27.8,18.7,28.1,18.1,28.1z
		 M2.8,9.2l-0.6,0c-0.3,0-0.6,0.1-0.8,0.3c-0.2,0.2-0.3,0.5-0.2,0.7c0,0.7,0.1,1.3,0.1,1.8c0.2,1.4,0.5,2.7,1,4
		c2.5,6.6,8.8,10.9,15.8,10.9c0.3,0,0.5-0.1,0.7-0.3c0.2-0.2,0.3-0.5,0.3-0.7c0-1.1,0-2.2,0-3.4c0-0.1,0-0.2,0-0.3
		c-0.1-0.4-0.5-0.7-1-0.7l0,0c-0.6,0-1.2-0.1-1.8-0.2c-0.4-0.1-0.8-0.2-1.2-0.3c-0.2,0-0.4-0.1-0.5-0.1c-0.3-0.1-0.6,0-0.8,0.2
		l-0.7,0.5c-0.5,0.4-1,0.8-1.5,1.1c-0.2,0.2-0.6,0.2-0.8,0.1c-2.3-1.2-4.2-3-5.4-5.4c-0.1-0.3-0.1-0.6,0.1-0.8l0.3-0.4
		c0.4-0.5,0.8-1.1,1.2-1.7c0.3-0.3,0.3-0.7,0.2-1c-0.4-1.1-0.6-2.3-0.6-3.5c0-0.5-0.4-0.9-0.9-1c0,0-0.1,0-0.1,0c-0.4,0-0.8,0-1.1,0
		L2.8,9.2L2.8,9.2z M11.3,21.8L11.3,21.8L11.3,21.8z M6.3,17.4L6.3,17.4z"/>
	<g id="Group_7560" transform="translate(7.168)">
		<path id="Path_4426" class="st0" d="M4.1,8.3C4,8.2,3.9,8,4,7.9c0.6-1.5-0.2-3.2-1.8-3.8C1.8,3.9,1.4,3.9,1,3.9
			c-0.3,0-0.5-0.2-0.5-0.4S0.6,3,0.9,3c0,0,0,0,0,0c2.1-0.2,4,1.5,4.2,3.6c0,0.5,0,1.1-0.2,1.6C4.8,8.4,4.5,8.6,4.3,8.5
			C4.2,8.4,4.1,8.4,4.1,8.3L4.1,8.3z"/>
		<path id="Path_4427" class="st0" d="M0,0.8c-0.2-0.2-0.1-0.5,0.1-0.7C0.2,0.1,0.3,0,0.4,0C4.2-0.3,7.6,2.4,8,6.3
			c0.1,1,0,2-0.3,2.9C7.6,9.5,7.3,9.6,7.1,9.5C6.8,9.4,6.7,9.2,6.8,8.9l0,0C7.8,5.8,6.2,2.3,3,1.3C2.2,1,1.3,0.9,0.5,1
			C0.3,1,0.1,0.9,0,0.8z"/>
	</g>
</g>
</svg>
