<?xml version="1.0" encoding="utf-8"?>
<!-- Generator: Adobe Illustrator 25.2.3, SVG Export Plug-In . SVG Version: 6.00 Build 0)  -->
<svg version="1.1" id="Layer_1" xmlns="http://www.w3.org/2000/svg" xmlns:xlink="http://www.w3.org/1999/xlink" x="0px" y="0px"
	 viewBox="0 0 16.2 10.8" style="enable-background:new 0 0 16.2 10.8;" xml:space="preserve">
<style type="text/css">
	.st0{fill:#647179;}
</style>
<g id="Component_182" transform="translate(-0.099 1.001)">
	<path id="Path_4229" class="st0" d="M12.4,2.5c0.1,0,0.1-0.1,0.2-0.1l2.8-1.6c0.2-0.2,0.6-0.2,0.8,0.1c0.1,0.1,0.1,0.3,0.1,0.4
		c0,2.1,0,4.2,0,6.2c0,0.3-0.1,0.5-0.4,0.6c-0.2,0-0.3,0-0.5-0.1c-0.9-0.5-1.9-1.1-2.8-1.6c0,0-0.1,0-0.2-0.1c0,0.2,0,0.4,0,0.6
		c0,1.5-1.2,2.8-2.7,2.9c0,0,0,0-0.1,0c-2.2,0-4.5,0-6.7,0C1.4,9.8,0.1,8.6,0.1,7c0,0,0-0.1,0-0.1c0-0.8,0-1.5,0-2.3
		c0-1,0-1.9,0-2.9C0.1,0.2,1.4-1,2.9-1c2.3,0,4.5,0,6.8,0c1.5,0,2.8,1.3,2.8,2.8c0,0,0,0,0,0C12.4,2,12.4,2.2,12.4,2.5z"/>
</g>
</svg>
