<?xml version="1.0" encoding="utf-8"?>
<!-- Generator: Adobe Illustrator 25.2.3, SVG Export Plug-In . SVG Version: 6.00 Build 0)  -->
<svg version="1.1" id="Layer_1" xmlns="http://www.w3.org/2000/svg" xmlns:xlink="http://www.w3.org/1999/xlink" x="0px" y="0px"
	 viewBox="0 0 67.9 51.4" style="enable-background:new 0 0 67.9 51.4;" xml:space="preserve">
<style type="text/css">
	.st0{fill:#464A4D;}
</style>
<g id="Group_7776" transform="translate(-141.862 -192.83)">
	<path id="Path_4495" class="st0" d="M168.4,193.1c0.8-0.1,1.6-0.2,2.4-0.3c-1.9,1.7-2.8,4.2-2.6,6.7c0,0.6,0.1,1.1,0.1,1.7
		c-1.1,0.2-2.2,0.5-3.3,0.8c-2.9,0.8-5.7,2-8.3,3.6c-2.8,1.6-5.4,3.6-7.8,5.9c-0.8,0.8-1.9,1.3-3,1.3c-2.2,0-3.9-1.8-3.9-4
		c0-1.1,0.5-2.1,1.3-2.9C150,199.2,158.8,194.7,168.4,193.1L168.4,193.1z"/>
	<path id="Path_4496" class="st0" d="M207,212.7c-1.3,0.4-2.8,0.1-3.8-0.8c-1.4-1.2-2.7-2.4-4.1-3.6c-3.4-2.6-7.3-4.7-11.4-6
		c-1.1-0.4-2.3-0.7-3.5-0.9c0.1-1.3,0.1-2.6,0-3.9c-0.1-0.8-0.4-1.7-0.7-2.4c-0.4-0.8-0.9-1.5-1.5-2.1c8.5,1.1,16.5,4.6,23.2,10
		c1.3,1.1,2.6,2.2,3.7,3.5c1.4,1.6,1.1,4.1-0.5,5.5C208,212.3,207.5,212.5,207,212.7z"/>
	<path id="Path_4497" class="st0" d="M169.1,214.5c0,0.1,0,0.2,0,0.2c-0.7,0.2-1.4,0.4-2,0.7c-2.9,1.1-5.7,2.8-8,4.9
		c-0.6,0.6-1.2,1.1-1.9,1.5c-1.9,1-4.3,0.3-5.3-1.6c-0.2-0.4-0.4-0.9-0.4-1.4c-0.2-1.2,0.3-2.5,1.2-3.3c3.7-3.6,8.1-6.4,13-7.9
		c1-0.3,2-0.6,3-0.8C168.8,209.5,168.9,212,169.1,214.5z"/>
	<path id="Path_4498" class="st0" d="M198.7,221.5c-1.4,1-3.3,1-4.7-0.1c-1-0.8-2-1.7-3-2.6c-2.2-1.7-4.6-3-7.2-3.8
		c-0.1,0-0.2-0.1-0.3-0.1c0.1-1.9,0.2-3.9,0.4-5.8c0-0.7,0.1-1.5,0.1-2.2c0-0.1,0-0.2,0-0.2c5.7,1.5,10.9,4.5,15.1,8.6
		c1.6,1.4,1.8,3.9,0.3,5.6C199.2,221.2,198.9,221.3,198.7,221.5z"/>
	<path id="Path_4499" class="st0" d="M170.2,225.4c0.3,0.7,0.7,1.3,1.3,1.8c-1.4,0.6-2.8,1.4-3.9,2.4c-0.6,0.6-1.3,1.1-2.1,1.4
		c-1.4,0.4-2.9,0.1-3.9-1c-1-1-1.4-2.5-1-3.9c0.2-0.7,0.7-1.4,1.2-1.9c1.8-1.7,3.8-3,6-4c0.5-0.2,1-0.4,1.5-0.6c0.1,1,0.1,2,0.2,3
		C169.6,223.6,169.8,224.5,170.2,225.4z"/>
	<path id="Path_4500" class="st0" d="M190.3,229.9c-1,1.1-2.6,1.6-4.1,1.2c-0.7-0.2-1.4-0.7-1.9-1.2c-1-1-2.2-1.8-3.5-2.4
		c0.3-0.3,0.7-0.7,0.9-1c0.8-1.2,1.3-2.5,1.3-4c0-0.8,0.1-1.7,0.1-2.6c2.3,0.9,4.5,2.2,6.3,3.9c0.6,0.5,1,1,1.4,1.7
		C191.7,226.9,191.4,228.7,190.3,229.9z"/>
	<path id="Path_4501" class="st0" d="M181.7,238.4c0,3.2-2.7,5.9-5.9,5.9c-3.2,0-5.9-2.7-5.9-5.9c0-3.2,2.7-5.9,5.9-5.9c0,0,0,0,0,0
		C179.1,232.5,181.7,235.1,181.7,238.4C181.7,238.3,181.7,238.4,181.7,238.4z"/>
	<path id="Path_4502" class="st0" d="M176.2,226.5c-0.1,0-0.1,0-0.2,0c-0.1,0-0.2,0-0.3,0C175.9,226.5,176,226.5,176.2,226.5z"/>
	<path id="Path_4503" class="st0" d="M181.6,200.9c0,0.5-0.1,1-0.1,1.5c-0.1,1.3-0.2,2.5-0.2,3.8c0,0.2,0,0.4,0,0.6
		c-0.2,2.5-0.3,5-0.5,7.5c0,0.2,0,0.4,0,0.7c-0.1,1.4-0.1,2.8-0.2,4.2c-0.1,1.1-0.1,2.2-0.1,3.3c0,0.9-0.3,1.7-0.8,2.5
		c-0.8,1.1-2.1,1.7-3.4,1.6c-0.1,0-0.3,0-0.4,0h0c-1.4-0.1-2.6-0.9-3.1-2.2c-0.3-0.6-0.4-1.2-0.4-1.9c-0.1-1.2-0.1-2.3-0.2-3.5
		c-0.1-1.5-0.2-3.1-0.3-4.6c0-0.1,0-0.1,0-0.2c-0.2-2.5-0.3-5.1-0.5-7.6l0-0.3c-0.1-1.8-0.3-3.6-0.4-5.4c0-0.5-0.1-0.9-0.1-1.4
		c-0.2-1.9,0.6-3.7,2.2-4.9c0.1-0.1,0.2-0.2,0.4-0.3s0.2-0.2,0.4-0.2s0.3-0.1,0.4-0.2s0.3-0.1,0.4-0.2c0.5-0.2,1.1-0.3,1.7-0.3
		c0.3,0,0.7,0,1,0.1c1.7,0.3,3.2,1.3,3.9,2.9c0.2,0.5,0.4,1,0.5,1.6C181.7,198.9,181.7,199.9,181.6,200.9z"/>
</g>
</svg>
