<?xml version="1.0" encoding="utf-8"?>
<!-- Generator: Adobe Illustrator 25.2.3, SVG Export Plug-In . SVG Version: 6.00 Build 0)  -->
<svg version="1.1" id="Layer_1" xmlns="http://www.w3.org/2000/svg" xmlns:xlink="http://www.w3.org/1999/xlink" x="0px" y="0px"
	 viewBox="0 0 236 213.3" style="enable-background:new 0 0 236 213.3;" xml:space="preserve">
<style type="text/css">
	.st0{fill-rule:evenodd;clip-rule:evenodd;fill:#333639;}
</style>
<path id="Path_4472" class="st0" d="M228.2,188.1c-1.5-3.8-3.5-7.3-6-10.5c-4-5.1-9.2-8.7-15-11.4c-1.6-0.9-3.4-1.6-5.2-2.2
	c-5.8-1.3-11.5-2.9-17.1-4.5c-1.9,0.1-3.8-0.6-5.3-1.9c-4.2-1.7-8.6-2.9-12.5-5.3c-1.4-0.1-2.7-0.7-3.6-1.7c-0.7-0.2-1.3-0.7-2-0.9
	c-2-0.5-3.8-1.6-5.1-3.2c-0.8-0.5-1.6-1-2.4-1.6c-0.9-0.4-1.6-1.3-1.8-2.3c-0.3-1.5-0.8-3-1.2-4.4c-0.4-1.5-0.7-3-0.9-4.6
	c-0.2-0.9-0.4-1.6-1.3-1.8c-0.9-0.5-1.8,0-2.6,0.2c-1.7,0.4-2.7-0.2-3-2c-0.2-1.3-0.6-2.7-0.6-4c-0.1-2.9-0.6-6,2.2-8.2
	c3.2-6.7,5.8-13.6,7.7-20.8c0.4-1.6,1.2-3,3.3-3c1.3-0.1,2.4-1,2.8-2.3c1.1-4.2,2.6-8.4,4.4-12.4c0.6-2.9,2-5.6,2.2-8.6
	c0-0.6,0.1-1.2,0.1-1.8c-0.1-0.2-0.2-0.5-0.3-0.6c-0.1-0.1-0.2-0.2-0.3-0.2c0.1-1.3,0.2-2.6,0.1-3.8c0.1-1.7-1-3.3-2.7-3.7
	c-1.6-0.4-1.9-1.3-1.8-2.8c0.4-5.6,0.7-11.3,1-17c0.1-0.2,0-0.4-0.1-0.5c0.1-0.1,0.1-0.2,0-0.3c-0.2-1.7-0.3-3.4-0.5-5.1
	c-0.5-4.1-0.9-8.2-3-11.9c-4-6.9-10-12.5-17.1-16c-6.1-3.1-12.8-4.7-19.4-6c-13.9-2.8-26.2,0.3-37,9.5c0,0.1,0.1,0.2,0.1,0.3l0,0
	c-1.2,0.8-2.2,1.8-2.9,3.1c-1.4,2.3-3.1,4.4-5.1,6.2c-3.6,3.4-5.6,7.3-5,12.2c-0.1,0.1-0.3,0.1-0.4,0.2c-0.2,0.2-0.3,0.4-0.4,0.6
	c-0.9,4,0.2,8.1,0.2,12.1c1,3.4,1,6.9,1.3,10.4c0.2,1.9-0.4,3.2-2.2,3.9c-2.4,0.8-3.3,2.7-3.6,5c-0.4,2.4-0.3,4.8,0.3,7.1
	c0.9,3.3,1.9,6.6,3,9.9c1.6,2.8,2.8,5.8,3.3,9c0.2,1.8,1.4,3.3,3.1,3.9c1.4,0.5,2.4,1.6,2.6,3.1c0.5,2.4,1.4,4.7,2.2,7.1
	c0.9,1.9,2.3,3.6,2.3,5.8c0,0.2,0.1,0.5,0.2,0.7c4.1,6.5,6.3,13.4,3.6,21c-1.4,1.5-2.8-0.1-4.2-0.1s-2.6-0.2-2.9,1.6
	c-1.1,3.3-1.6,6.8-2.7,10.1c-0.4,1.7-1.6,3.2-3.2,4c-3.8,2-7.7,3.6-11.8,4.8c-2.7,1.9-6,2.5-9.1,3.6c-5.9,2.2-12.2,3.4-18.3,5.1
	c-7.5,2-14.7,4.5-21,9.3c-3.2,3.9-7.4,7.1-8.9,12.2c0,2.2-6.1,30.6-4.4,30.6c73.8,0,161.8,0,235.6,0
	C236.7,212.4,228.6,189.3,228.2,188.1z"/>
</svg>
