<svg xmlns="http://www.w3.org/2000/svg" width="18.528" height="18.259" viewBox="0 0 18.528 18.259"><defs><style>.a{fill:#fff;opacity:0.5;}</style></defs><path class="a" d="M82.311,80.838l-5.153-5.125a7.193,7.193,0,0,0,1.616-4.54,7.388,7.388,0,1,0-7.387,7.278,7.429,7.429,0,0,0,4.656-1.626l5.119,5.091a.8.8,0,0,0,1.119.029A.778.778,0,0,0,82.311,80.838Zm-10.924-3.95a5.807,5.807,0,0,1-4.1-1.673,5.645,5.645,0,0,1,0-8.072,5.863,5.863,0,0,1,8.2,0,5.645,5.645,0,0,1,0,8.072A5.807,5.807,0,0,1,71.387,76.887Z" transform="translate(-64 -63.9)"/></svg>